{"title":"El.Cid.1961.720p.DTS.BluRay.x264-Gabe","uid":6455597,"size":4674131584,"categoryP":"video","categoryS":"hd___movies","magnet":"?xt=urn:btih:254a540f716b77081f2d70a31c180b15e98d544c&amp;dn=El.Cid.1961.720p.DTS.BluRay.x264-Gabe&amp;tr=udp%3A%2F%2Ftracker.openbittorrent.com%3A80&amp;tr=udp%3A%2F%2Fopen.demonii.com%3A1337&amp;tr=udp%3A%2F%2Ftracker.coppersurfer.tk%3A6969&amp;tr=udp%3A%2F%2Fexodus.desync.com%3A6969","seeders":4,"leechers":4,"uploader":"-Gabe-","files":-1,"time":1307572271,"description":"File size                        : 4.36 GiB\nDuration                         : 3h 8mn\nOverall bit rate                 : 3 318 Kbps\n\nWidth                            : 1 280 pixels\nHeight                           : 544 pixels\nDisplay aspect ratio             : 2.35:1\nFrame rate                       : 23.976 fps\nBit depth                        : 8 bits\nStream size                      : 3.43 GiB (79%)\nLanguage                         : English\n\nAudio\nCodec ID                         : A_AC3\nBit rate                         : 640 Kbps\nChannel(s)                       : 6 channels\nChannel positions                : Front: L C R, Side: L R, LFE\nBit depth                        : 16 bits\nStream size                      : 861 MiB (19%)\n\nSubtitles: Croatian, Danish, English, French, Greece, Hungarian, Indonesian, Netherland, Romanian, Rusian, Serbian, Spanish \n\nOne of my fewest rips. Enjoy\n\nScreens:\n\n &lt;a href=&quot;\nhttp://shareimage.ro/images/mc3wsty3u1ukl88rjldz.jpg&quot; rel=&quot;nofollow&quot; target=&quot;_NEW&quot;&gt;\nhttp://shareimage.ro/images/mc3wsty3u1ukl88rjldz.jpg&lt;/a&gt;\n &lt;a href=&quot;\nhttp://shareimage.ro/images/qcjugwk5f6sfh5ygt7z.jpg&quot; rel=&quot;nofollow&quot; target=&quot;_NEW&quot;&gt;\nhttp://shareimage.ro/images/qcjugwk5f6sfh5ygt7z.jpg&lt;/a&gt;\n &lt;a href=&quot;\nhttp://shareimage.ro/images/rnymefawyeig06x7hfyj.jpg&quot; rel=&quot;nofollow&quot; target=&quot;_NEW&quot;&gt;\nhttp://shareimage.ro/images/rnymefawyeig06x7hfyj.jpg&lt;/a&gt;\n &lt;a href=&quot;\nhttp://shareimage.ro/images/b3l34uny16shkjo1mlgz.jpg&quot; rel=&quot;nofollow&quot; target=&quot;_NEW&quot;&gt;\nhttp://shareimage.ro/images/b3l34uny16shkjo1mlgz.jpg&lt;/a&gt;\n &lt;a href=&quot;\nhttp://shareimage.ro/images/2p564rgv5cq25mdbkv6.jpg&quot; rel=&quot;nofollow&quot; target=&quot;_NEW&quot;&gt;\nhttp://shareimage.ro/images/2p564rgv5cq25mdbkv6.jpg&lt;/a&gt;\n &lt;a href=&quot;\nhttp://shareimage.ro/images/dxpr90cljsw1398h1mjn.jpg&quot; rel=&quot;nofollow&quot; target=&quot;_NEW&quot;&gt;\nhttp://shareimage.ro/images/dxpr90cljsw1398h1mjn.jpg&lt;/a&gt;\n &lt;a href=&quot;\nhttp://shareimage.ro/images/ekyrp3f7mwd3s7rjg33.jpg&quot; rel=&quot;nofollow&quot; target=&quot;_NEW&quot;&gt;\nhttp://shareimage.ro/images/ekyrp3f7mwd3s7rjg33.jpg&lt;/a&gt;","torrent":{"xt":"urn:btih:254a540f716b77081f2d70a31c180b15e98d544c","amp;dn":"El.Cid.1961.720p.DTS.BluRay.x264-Gabe","amp;tr":["udp%3A%2F%2Ftracker.openbittorrent.com%3A80","udp%3A%2F%2Fopen.demonii.com%3A1337","udp%3A%2F%2Ftracker.coppersurfer.tk%3A6969","udp%3A%2F%2Fexodus.desync.com%3A6969"],"infoHash":"254a540f716b77081f2d70a31c180b15e98d544c","infoHashBuffer":{"type":"Buffer","data":[37,74,84,15,113,107,119,8,31,45,112,163,28,24,11,21,233,141,84,76]},"announce":[],"urlList":[]}}